HIERARCHY
ROOT Hips
{
	OFFSET 0.000000 0.000000 0.000000
	CHANNELS 6 Xposition Yposition Zposition Zrotation Xrotation Yrotation
	JOINT Spine1
	{
		OFFSET 0.000000 -0.000001 4.165421
		CHANNELS 6 Xposition Yposition Zposition Zrotation Xrotation Yrotation
		JOINT Neck
		{
			OFFSET 0.000000 -0.000001 3.320820
			CHANNELS 6 Xposition Yposition Zposition Zrotation Xrotation Yrotation
			JOINT Head
			{
				OFFSET 0.000000 -0.272454 2.111520
				CHANNELS 6 Xposition Yposition Zposition Zrotation Xrotation Yrotation
				End Site
				{
					OFFSET 0.000000 -0.000000 2.724533
				}
			}
		}
		JOINT LeftShoulder
		{
			OFFSET 0.548650 0.072018 2.681385
			CHANNELS 6 Xposition Yposition Zposition Zrotation Xrotation Yrotation
			JOINT LeftArm
			{
				OFFSET 1.957740 0.000000 0.000000
				CHANNELS 6 Xposition Yposition Zposition Zrotation Xrotation Yrotation
				JOINT LeftForeArm
				{
					OFFSET 3.838815 0.000000 0.000000
					CHANNELS 6 Xposition Yposition Zposition Zrotation Xrotation Yrotation
					JOINT LeftHand
					{
						OFFSET 3.567674 0.000000 0.000000
						CHANNELS 6 Xposition Yposition Zposition Zrotation Xrotation Yrotation
						End Site
						{
							OFFSET 2.043400 0.000000 0.000000
						}
					}
				}
			}
		}
		JOINT RightShoulder
		{
			OFFSET -0.541081 0.072018 2.681385
			CHANNELS 6 Xposition Yposition Zposition Zrotation Xrotation Yrotation
			JOINT RightArm
			{
				OFFSET -1.957740 0.000000 0.000000
				CHANNELS 6 Xposition Yposition Zposition Zrotation Xrotation Yrotation
				JOINT RightForeArm
				{
					OFFSET -3.838815 0.000000 0.000000
					CHANNELS 6 Xposition Yposition Zposition Zrotation Xrotation Yrotation
					JOINT RightHand
					{
						OFFSET -3.567675 0.000000 0.000000
						CHANNELS 6 Xposition Yposition Zposition Zrotation Xrotation Yrotation
						End Site
						{
							OFFSET -2.043400 0.000000 0.000000
						}
					}
				}
			}
		}
	}
	JOINT LeftUpLeg
	{
		OFFSET 1.362270 0.000000 0.000000
		CHANNELS 6 Xposition Yposition Zposition Zrotation Xrotation Yrotation
		JOINT LeftLeg
		{
			OFFSET 0.000000 0.000001 -5.729235
			CHANNELS 6 Xposition Yposition Zposition Zrotation Xrotation Yrotation
			JOINT LeftFoot
			{
				OFFSET 0.000000 0.000001 -6.006450
				CHANNELS 6 Xposition Yposition Zposition Zrotation Xrotation Yrotation
				JOINT LeftToeBase
				{
					OFFSET 0.000000 -2.043405 -0.885475
					CHANNELS 6 Xposition Yposition Zposition Zrotation Xrotation Yrotation
					End Site
					{
						OFFSET 0.000000 -0.544907 0.000000
					}
				}
			}
		}
	}
	JOINT RightUpLeg
	{
		OFFSET -1.362270 0.000000 0.000000
		CHANNELS 6 Xposition Yposition Zposition Zrotation Xrotation Yrotation
		JOINT RightLeg
		{
			OFFSET 0.000000 0.000001 -5.729235
			CHANNELS 6 Xposition Yposition Zposition Zrotation Xrotation Yrotation
			JOINT RightFoot
			{
				OFFSET 0.000000 0.000001 -6.006450
				CHANNELS 6 Xposition Yposition Zposition Zrotation Xrotation Yrotation
				JOINT RightToeBase
				{
					OFFSET 0.000000 -2.043405 -0.885475
					CHANNELS 6 Xposition Yposition Zposition Zrotation Xrotation Yrotation
					End Site
					{
						OFFSET 0.000000 -0.544907 0.000000
					}
				}
			}
		}
	}
}
MOTION
Frames: 5
Frame Time: 0.016667
1.704794 0.235426 11.200912 -4.092173 10.452165 -3.893384 -0.000000 -0.000000 4.165419 4.089726 -5.586029 -3.872967 0.000000 -0.000000 3.320819 -3.889884 6.574878 1.315639 -0.000000 -0.272454 2.111523 -4.005204 17.929358 -7.220234 0.548650 0.072018 2.681382 -0.111475 -7.751437 -18.326127 1.957740 0.000000 0.000000 -19.761231 7.262732 21.310745 3.838814 -0.000000 0.000002 -42.384848 3.319243 -32.266486 3.567675 -0.000001 0.000002 3.443353 -10.451271 -30.073268 -0.541081 0.072018 2.681384 2.681215 -5.822459 13.573334 -1.957740 -0.000000 -0.000000 58.236857 -0.584723 -54.625387 -3.838815 -0.000000 0.000000 112.785971 6.439816 33.646396 -3.567675 0.000001 -0.000001 -2.687520 -44.608689 6.069225 1.362270 0.000000 -0.000001 22.322882 -29.068670 -10.080093 -0.000000 0.000001 -5.729234 12.001822 38.539192 7.804512 0.000000 0.000001 -6.006449 18.185309 -7.730232 3.308835 0.000000 -2.043405 -0.885475 0.000002 -0.000001 0.000003 -1.362270 0.000000 -0.000001 8.062556 -21.376981 38.476501 0.000000 0.000001 -5.729235 -26.749751 29.958251 -16.868407 0.000000 0.000001 -6.006450 -27.986932 1.209731 -8.127549 -0.000000 -2.043405 -0.885475 0.000000 0.000001 0.000000 
1.702527 0.239392 11.201673 -4.038205 10.391567 -3.849721 -0.000000 -0.000001 4.165420 4.274524 -5.449741 -3.816592 -0.000000 -0.000001 3.320818 -4.296151 6.685688 1.342605 -0.000000 -0.272454 2.111518 -4.384209 18.528826 -7.677020 0.548650 0.072018 2.681382 -0.216759 -7.732400 -18.210080 1.957740 0.000000 -0.000001 -20.183289 7.275538 21.504740 3.838814 -0.000001 -0.000002 -42.968614 3.936244 -32.745320 3.567673 -0.000000 0.000002 3.175193 -10.189763 -30.751175 -0.541081 0.072018 2.681383 2.798169 -5.795285 13.455065 -1.957740 -0.000000 -0.000001 59.762810 -0.104083 -54.866363 -3.838813 0.000000 -0.000000 113.022494 5.759420 33.960780 -3.567674 -0.000001 -0.000001 -1.190199 -45.721730 8.014012 1.362270 -0.000000 -0.000001 22.245451 -29.065546 -10.150109 -0.000000 0.000001 -5.729235 11.963228 38.534770 7.807870 -0.000000 0.000001 -6.006449 18.203977 -7.713997 3.337461 0.000000 -2.043405 -0.885475 -0.000003 -0.000002 0.000001 -1.362270 -0.000000 -0.000001 8.724858 -20.627781 38.684142 -0.000000 0.000001 -5.729235 -27.488153 29.724772 -17.130606 0.000001 0.000001 -6.006450 -28.173533 1.192400 -8.015977 0.000000 -2.043404 -0.885475 -0.000001 -0.000000 0.000000 
1.699862 0.244779 11.202488 -3.972313 10.346849 -3.781226 -0.000000 -0.000001 4.165421 4.415001 -5.279819 -3.767561 0.000001 -0.000000 3.320819 -4.694574 6.747604 1.370454 -0.000000 -0.272454 2.111524 -4.754290 19.095619 -8.118985 0.548651 0.072018 2.681383 -0.285063 -7.770088 -18.132503 1.957739 -0.000000 -0.000000 -20.594434 7.348998 21.757843 3.838815 0.000000 0.000001 -43.505850 4.648397 -33.318042 3.567674 0.000001 -0.000000 3.055972 -9.896450 -31.162250 -0.541081 0.072018 2.681386 2.953425 -5.821225 13.378980 -1.957740 -0.000000 0.000000 60.806148 0.422449 -55.294879 -3.838812 -0.000000 -0.000000 114.001444 4.450296 33.772202 -3.567675 0.000001 0.000000 -2.896793 -47.255781 5.275479 1.362270 0.000000 -0.000000 22.160706 -29.105116 -10.233719 0.000001 0.000001 -5.729235 11.849182 38.538209 7.849351 -0.000000 0.000001 -6.006447 18.266274 -7.706415 3.319813 0.000001 -2.043405 -0.885475 -0.000002 0.000000 -0.000001 -1.362270 0.000000 -0.000000 8.641007 -20.598244 38.566912 0.000000 0.000001 -5.729235 -27.554872 29.709752 -17.086746 0.000000 0.000001 -6.006451 -28.144269 1.219539 -8.026020 -0.000000 -2.043405 -0.885475 -0.000001 0.000000 -0.000001 
1.697610 0.249437 11.202554 -3.896436 10.284160 -3.725430 0.000000 -0.000001 4.165421 4.575408 -5.123238 -3.710174 -0.000000 -0.000000 3.320822 -5.089239 6.869121 1.428522 0.000000 -0.272453 2.111520 -5.118109 19.595155 -8.634032 0.548650 0.072018 2.681386 -0.405424 -7.751120 -18.044209 1.957739 0.000000 -0.000002 -20.915146 7.363931 21.999681 3.838815 -0.000000 0.000001 -44.230447 5.285334 -33.849509 3.567672 -0.000001 -0.000001 2.813020 -9.700686 -31.674886 -0.541082 0.072018 2.681385 3.081509 -5.822978 13.281658 -1.957740 -0.000001 -0.000002 61.940014 0.990444 -55.581962 -3.838814 -0.000000 -0.000001 114.736209 3.249400 33.682108 -3.567677 0.000001 -0.000000 -3.284035 -48.578720 4.406173 1.362270 0.000000 -0.000000 22.134685 -29.141060 -10.279708 -0.000000 0.000001 -5.729235 11.829166 38.562999 7.794405 -0.000001 0.000001 -6.006450 18.215536 -7.696273 3.319434 0.000001 -2.043404 -0.885475 -0.000000 0.000001 -0.000001 -1.362270 0.000000 0.000000 8.273008 -20.811385 38.380124 -0.000001 0.000001 -5.729234 -27.335800 29.804463 -16.979596 -0.000000 0.000001 -6.006451 -28.028957 1.252496 -8.062597 0.000000 -2.043405 -0.885476 0.000004 0.000000 -0.000001 
1.696150 0.254276 11.202539 -3.817633 10.243884 -3.672493 -0.000000 -0.000001 4.165420 4.719863 -4.981663 -3.639081 0.000000 -0.000000 3.320819 -5.495369 6.955374 1.426704 -0.000000 -0.272453 2.111519 -5.490342 20.130791 -9.014484 0.548651 0.072018 2.681383 -0.512696 -7.768085 -17.952729 1.957740 0.000000 0.000001 -21.207251 7.342666 22.250615 3.838814 0.000000 -0.000001 -44.899355 6.043060 -34.339603 3.567673 0.000000 -0.000001 2.579527 -9.354990 -32.107271 -0.541081 0.072018 2.681383 3.254804 -5.867475 13.223641 -1.957740 -0.000001 0.000000 63.271116 1.639050 -55.854774 -3.838814 -0.000001 0.000001 115.570940 1.834799 33.522712 -3.567678 -0.000000 -0.000000 -2.846355 -50.015163 5.403850 1.362270 0.000000 -0.000001 22.055924 -29.178309 -10.342628 -0.000000 0.000001 -5.729235 11.749026 38.570348 7.820812 -0.000000 0.000002 -6.006450 18.243276 -7.701242 3.302548 0.000000 -2.043404 -0.885475 0.000002 -0.000001 0.000000 -1.362270 -0.000000 -0.000001 8.512233 -20.463402 38.428745 -0.000000 0.000001 -5.729235 -27.698493 29.695801 -17.098223 0.000000 0.000001 -6.006451 -28.097093 1.256429 -8.025430 0.000000 -2.043405 -0.885476 -0.000004 0.000000 0.000002 
